<?xml version="1.0" encoding="utf-8"?>
<!-- Generator: Adobe Illustrator 27.9.0, SVG Export Plug-In . SVG Version: 6.00 Build 0)  -->
<svg version="1.1" id="Calque_1" xmlns="http://www.w3.org/2000/svg" xmlns:xlink="http://www.w3.org/1999/xlink" x="0px" y="0px"
	 viewBox="0 0 529 604" style="enable-background:new 0 0 529 604;" xml:space="preserve">
<style type="text/css">
	.st0{font-family:'ArialMT';}
	.st1{font-size:12px;}
</style>
<path d="M377.5,456.9c-8.8,0-16,7.4-16,16.4v68.3V588l32-32.8l64-65.6l32-32.7h-45.3H377.5z"/>
<text transform="matrix(1 0 0 1 232.7663 305)" class="st0 st1">Lorem ipsum</text>
<path d="M425.5,30h-320c-35.3,0-64,29.4-64,65.6v426.9c0,36.2,28.7,65.6,64,65.6h224V473.2c0-27.2,21.5-49.2,48-49.2h112V95.6
	C489.5,59.4,460.8,30,425.5,30z M204.5,247.5c14.9,0,19.4-7.1,23.6-14.1l31,17.7c-0.8,2-13.9,32.1-55.2,32.1
	c-43.5,0-74.6-33.3-74.6-75c0-41.3,30.6-75,74.6-75c40.9,0,54,29.2,55.2,31.9l-31,17.7c-4-6.5-8.3-13.9-23.6-13.9
	c-16.3,0-31.2,8.3-31.2,39.1C173.3,239,188.2,247.5,204.5,247.5z M361.2,280.3h-46.8L267,136.4h47.2L338,236.6l25.4-100.2h47.2
	L361.2,280.3z"/>
</svg>
